<svg width="1428" height="517" viewBox="0 0 1428 517" fill="none" xmlns="http://www.w3.org/2000/svg">
<g filter="url(#filter0_f_23_183)">
<g clip-path="url(#clip0_23_183)">
<path d="M1356.26 97.3648L1355.52 98.4996L1344.01 134.341L1344.2 134.902L1364.02 130.289L1356.26 97.3648Z" fill="#343434"/>
<path d="M1356.26 97.3649L1330.78 119.616L1344.2 134.902L1349.83 117.377L1356.26 97.3649Z" fill="#8C8C8C"/>
<path d="M1343.22 137.955L1342.89 138.222L1338.79 150.998L1338.83 151.636L1363 133.455L1343.22 137.955Z" fill="#3C3C3C"/>
<path d="M1338.83 151.636L1343.22 137.955L1329.76 122.782L1338.83 151.636Z" fill="#8C8C8C"/>
<path d="M1344.2 134.902L1364.02 130.289L1349.83 117.377L1344.2 134.902Z" fill="#141414"/>
<path d="M1330.78 119.616L1344.2 134.903L1349.83 117.378L1330.78 119.616Z" fill="#393939"/>
</g>
<path fill-rule="evenodd" clip-rule="evenodd" d="M756.829 54.0008L764.021 55.8675V53.3341L764.564 52.8008H768.636V55.7341V57.7341H764.293L758.864 55.3341L756.829 54.0008Z" fill="#CDBDB2"/>
<path fill-rule="evenodd" clip-rule="evenodd" d="M780.171 54.0008L773.114 55.8675V53.3341L772.571 52.8008H768.5V55.7341V57.7341H772.843L778.271 55.3341L780.171 54.0008Z" fill="#CDBDB2"/>
<path fill-rule="evenodd" clip-rule="evenodd" d="M764.564 48.6667L764.021 53.3333L764.7 52.8H772.3L773.114 53.3333L772.571 48.6667L771.35 48L765.65 48.1333L764.564 48.6667Z" fill="#393939"/>
<path fill-rule="evenodd" clip-rule="evenodd" d="M760.629 16.9336L764.157 24.9336L765.786 48.1336H771.35L773.114 24.9336L776.372 16.9336H760.629Z" fill="#F89C35"/>
<path fill-rule="evenodd" clip-rule="evenodd" d="M745.429 34.4005L741.357 46.0005L751.536 45.4671H758.05V40.4005L757.779 30.1338L756.286 31.3338L745.429 34.4005Z" fill="#F89D35"/>
<path fill-rule="evenodd" clip-rule="evenodd" d="M753.164 35.7334L764.971 36.0001L763.75 42.0001L758.05 40.5334L753.164 35.7334Z" fill="#D87C30"/>
<path fill-rule="evenodd" clip-rule="evenodd" d="M753.164 35.8672L758.05 40.4005V44.9339L753.164 35.8672Z" fill="#EA8D3A"/>
<path fill-rule="evenodd" clip-rule="evenodd" d="M758.05 40.5342L763.886 42.0008L765.786 48.1342L764.429 48.8008L758.05 45.0675V40.5342Z" fill="#F89D35"/>
<path fill-rule="evenodd" clip-rule="evenodd" d="M758.05 45.0674L756.829 54.0007L764.564 48.6674L758.05 45.0674Z" fill="#EB8F35"/>
<path fill-rule="evenodd" clip-rule="evenodd" d="M764.971 36L765.786 48.1333L763.614 41.8667L764.971 36Z" fill="#EA8E3A"/>
<path fill-rule="evenodd" clip-rule="evenodd" d="M751.4 45.2007L758.05 45.0674L756.829 54.0007L751.4 45.2007Z" fill="#D87C30"/>
<path fill-rule="evenodd" clip-rule="evenodd" d="M744.614 57.8669L756.829 54.0002L751.4 45.2002L741.357 46.0002L744.614 57.8669Z" fill="#EB8F35"/>
<path fill-rule="evenodd" clip-rule="evenodd" d="M764.157 24.9336L757.914 30.0003L753.164 35.7336L764.971 36.1336L764.157 24.9336Z" fill="#E8821E"/>
<path fill-rule="evenodd" clip-rule="evenodd" d="M756.829 54.0003L764.564 48.667L764.021 53.2003V55.867L758.729 54.8003L756.829 54.0003Z" fill="#DFCEC3"/>
<path fill-rule="evenodd" clip-rule="evenodd" d="M780.171 54.0003L772.571 48.667L773.114 53.2003V55.867L778.407 54.8003L780.171 54.0003Z" fill="#DFCEC3"/>
<path fill-rule="evenodd" clip-rule="evenodd" d="M761.85 38.5342L763.479 41.8675L757.779 40.4008L761.85 38.5342Z" fill="#393939"/>
<path fill-rule="evenodd" clip-rule="evenodd" d="M744.343 10.1338L764.157 24.9338L760.764 16.9338L744.343 10.1338Z" fill="#E88F35"/>
<path fill-rule="evenodd" clip-rule="evenodd" d="M744.343 10.1338L741.764 18.0005L743.257 26.5338L742.307 27.0671L743.8 28.4005L742.579 29.3338L744.071 30.8005L743.121 31.6005L745.429 34.5338L756.286 31.2005C761.579 27.0671 764.157 24.9338 764.157 24.8005C764.157 24.6671 757.507 19.8671 744.343 10.1338Z" fill="#8E5A30"/>
<path fill-rule="evenodd" clip-rule="evenodd" d="M791.572 34.4005L795.643 46.0005L785.464 45.4671H778.95V40.4005L779.222 30.1338L780.714 31.3338L791.572 34.4005Z" fill="#F89D35"/>
<path fill-rule="evenodd" clip-rule="evenodd" d="M783.836 35.7334L772.029 36.0001L773.25 42.0001L778.95 40.5334L783.836 35.7334Z" fill="#D87C30"/>
<path fill-rule="evenodd" clip-rule="evenodd" d="M783.836 35.8672L778.95 40.4005V44.9339L783.836 35.8672Z" fill="#EA8D3A"/>
<path fill-rule="evenodd" clip-rule="evenodd" d="M778.95 40.5342L773.114 42.0008L771.214 48.1342L772.572 48.8008L778.95 45.0675V40.5342Z" fill="#F89D35"/>
<path fill-rule="evenodd" clip-rule="evenodd" d="M778.95 45.0674L780.172 54.0007L772.572 48.8007L778.95 45.0674Z" fill="#EB8F35"/>
<path fill-rule="evenodd" clip-rule="evenodd" d="M772.029 36L771.214 48.1333L773.386 41.8667L772.029 36Z" fill="#EA8E3A"/>
<path fill-rule="evenodd" clip-rule="evenodd" d="M785.6 45.2007L778.95 45.0674L780.172 54.0007L785.6 45.2007Z" fill="#D87C30"/>
<path fill-rule="evenodd" clip-rule="evenodd" d="M792.386 57.8669L780.172 54.0002L785.6 45.2002L795.643 46.0002L792.386 57.8669Z" fill="#EB8F35"/>
<path fill-rule="evenodd" clip-rule="evenodd" d="M772.843 24.9336L779.086 30.0003L783.836 35.7336L772.029 36.1336L772.843 24.9336Z" fill="#E8821E"/>
<path fill-rule="evenodd" clip-rule="evenodd" d="M775.15 38.5342L773.522 41.8675L779.222 40.4008L775.15 38.5342Z" fill="#393939"/>
<path fill-rule="evenodd" clip-rule="evenodd" d="M792.657 10.1338L772.843 24.9338L776.236 16.9338L792.657 10.1338Z" fill="#E88F35"/>
<path fill-rule="evenodd" clip-rule="evenodd" d="M792.657 10.1338L795.236 18.0005L793.743 26.5338L794.693 27.0671L793.2 28.4005L794.422 29.3338L792.793 30.8005L793.743 31.6005L791.436 34.4005L780.579 31.0671C775.286 26.9338 772.707 24.8005 772.707 24.6671C772.979 24.8005 779.493 19.8671 792.657 10.1338Z" fill="#8E5A30"/>
<g clip-path="url(#clip1_23_183)">
<path d="M77.399 68.0972C77.399 68.0972 68.7246 70.654 64.2839 72.3091C60.0097 73.8869 55.054 75.9578 49.8106 78.3897C44.5673 80.8216 39.7853 83.2671 35.8199 85.5108C31.6977 87.8524 24.355 93.2806 24.355 93.2806L25.3296 95.3822C26.1982 97.2548 38.8154 93.2232 53.526 86.4005C68.2366 79.5777 79.4546 72.5291 78.5957 70.6773L77.399 68.0972Z" fill="#F0D50C"/>
<path d="M29.696 56.4443C21.5907 64.4258 19.3644 76.6334 24.1509 86.9537L25.7529 90.4077C28.8417 87.9638 32.1473 85.8239 35.6088 83.9656C35.2791 83.3094 34.9495 82.6532 34.6407 81.9874C30.4332 72.9155 28.835 63.7459 29.696 56.4443Z" fill="#F0D50C"/>
<path d="M72.9435 64.3235C70.3186 58.6639 65.815 54.078 60.168 51.3877C64.0446 55.6576 67.2479 60.4927 69.6382 65.7553C70.0821 66.7125 70.4955 67.6584 70.8674 68.6237C72.0474 68.2787 73.2563 67.9961 74.483 67.8064L72.9435 64.3235Z" fill="#FFF04D"/>
<path d="M72.9435 64.3235C70.3186 58.6639 65.815 54.078 60.168 51.3877C64.0446 55.6576 67.2479 60.4927 69.6382 65.7553C70.0821 66.7125 70.4955 67.6584 70.8674 68.6237C72.0474 68.2787 73.2563 67.9961 74.483 67.8064L72.9435 64.3235Z" fill="#FFEA00"/>
<path d="M60.168 51.3871C49.9578 46.4898 37.7693 48.5021 29.6752 56.4532C28.8141 63.7547 30.4123 72.9244 34.6199 81.9963C34.9287 82.6621 35.2583 83.3183 35.5879 83.9744C39.1037 82.0151 43.2199 79.8785 47.7046 77.7732C47.7046 77.7732 48.7241 77.3004 49.2027 77.0784C56.2177 73.7237 63.4531 70.8988 70.8882 68.6134C70.4955 67.6578 70.0821 66.7119 69.659 65.7451C67.2575 60.5129 64.0654 55.6473 60.168 51.3871Z" fill="#FFF04D"/>
<path d="M51.9102 57.1894L45.8831 48.2283C45.4509 47.5691 44.6605 47.2278 43.8774 47.3381C38.7447 48.1006 33.959 50.3202 30.0823 53.7363C29.4922 54.2629 29.2422 55.0867 29.4663 55.8424L32.3932 66.2415" fill="#FFF04D"/>
<path d="M49.1062 76.8706C48.6484 77.0829 48.1698 77.3049 47.7121 77.5172L47.6705 77.5365L47.6289 77.5558C33.6532 84.1642 23.2066 90.8044 24.0365 92.5938L25.2428 95.1947C25.2895 95.35 25.3875 95.5068 25.5287 95.5931C25.9852 94.724 26.6438 93.9634 27.41 93.3805C29.3647 91.8166 31.4589 90.3902 33.6304 89.1302C34.8529 88.3862 36.3359 88.204 37.6984 88.634C40.1892 89.4255 42.893 89.2587 45.265 88.1586L60.1628 81.2489C62.5348 80.1488 64.4086 78.1925 65.4133 75.7798C65.9652 74.4619 67.0622 73.4475 68.4198 72.9948C70.7842 72.151 73.2051 71.4833 75.6824 70.9917C76.5919 70.7721 77.5161 70.748 78.4136 70.9385C78.4745 70.9608 78.5257 70.9623 78.5867 70.9847C78.612 70.8212 78.5764 70.6355 78.4672 70.5091L77.2609 67.9082C76.4437 66.0371 63.8167 70.0478 49.1062 76.8706Z" fill="#FFF04D"/>
<path d="M51.1341 66.5253L47.1182 72.5848L49.193 77.0583L51.1341 66.5253Z" fill="#6E6F70"/>
<path d="M49.193 77.0582L47.1182 72.5847L39.8983 71.7363L49.193 77.0582Z" fill="#0A0A0A"/>
<path d="M38.943 69.6757L46.0663 70.316L40.3437 57.9774L38.943 69.6757Z" fill="#0A0A0A"/>
<path d="M50.1787 64.4646L40.3436 57.9775L43.0554 63.8243L46.0663 70.3161L50.1787 64.4646Z" fill="#6E6F70"/>
</g>
<g clip-path="url(#clip2_23_183)">
<path d="M75.5291 433.574C75.7254 433.242 76.0453 433.002 76.4185 432.906L110.852 424.066C111.479 423.905 111.988 424.583 111.658 425.141L106.599 433.686C106.403 434.017 106.083 434.258 105.71 434.353L71.2766 443.193C70.6493 443.354 70.1406 442.676 70.4705 442.119L75.5291 433.574Z" fill="url(#paint0_linear_23_183)"/>
<path d="M69.0086 408.174C69.2048 407.843 69.5248 407.603 69.898 407.507L104.331 398.667C104.959 398.506 105.467 399.184 105.138 399.741L100.079 408.287C99.8826 408.618 99.5627 408.858 99.1895 408.954L64.756 417.794C64.1287 417.955 63.6201 417.277 63.95 416.72L69.0086 408.174Z" fill="url(#paint1_linear_23_183)"/>
<path d="M101.37 413.317C101.039 413.121 100.643 413.065 100.269 413.161L65.8359 422.001C65.2086 422.162 65.0894 423.001 65.6469 423.33L74.1962 428.382C74.5279 428.578 74.9239 428.634 75.2971 428.538L109.731 419.699C110.358 419.538 110.477 418.698 109.92 418.369L101.37 413.317Z" fill="url(#paint2_linear_23_183)"/>
<path d="M75.7844 456.391L78.1412 455.786C78.4723 455.701 78.8105 455.904 78.8966 456.24C78.9828 456.575 78.7843 456.916 78.4532 457.001L75.6105 457.731C75.5662 457.743 75.5274 457.77 75.5012 457.808L74.834 458.772C74.7319 458.92 74.8674 459.118 75.0403 459.073L78.5989 458.16C78.6003 458.159 78.6012 458.158 78.6008 458.157C78.6004 458.155 78.6014 458.153 78.6031 458.153C78.6487 458.145 78.6945 458.135 78.7402 458.124C79.6841 457.881 80.2506 456.91 80.0054 455.955C79.7725 455.048 78.8914 454.481 77.9949 454.634C77.9933 454.634 77.9918 454.633 77.9914 454.632C77.991 454.63 77.9894 454.629 77.9878 454.63L75.4488 455.281C75.1178 455.366 74.7796 455.163 74.6934 454.828C74.6073 454.492 74.8058 454.151 75.1368 454.066L77.9756 453.337C78.0224 453.325 78.0628 453.296 78.0888 453.255L78.6948 452.306C78.7895 452.158 78.6541 451.967 78.4845 452.011L74.8964 452.932C74.8963 452.932 74.8961 452.932 74.8962 452.932C74.8962 452.933 74.8961 452.933 74.8959 452.933C74.8806 452.936 74.8653 452.94 74.8499 452.944C73.906 453.186 73.3395 454.157 73.5847 455.112C73.8299 456.068 74.794 456.645 75.7379 456.403C75.7533 456.399 75.7686 456.395 75.7837 456.391C75.7839 456.391 75.784 456.391 75.7841 456.391C75.7841 456.391 75.7843 456.391 75.7844 456.391Z" fill="black"/>
<path d="M88.6232 449.408C88.5201 449.435 88.4583 449.54 88.485 449.645L89.8762 455.064C89.9029 455.168 90.0082 455.231 90.1112 455.204L94.4267 454.096C94.4783 454.083 94.522 454.049 94.5475 454.002L94.938 453.28C95.0188 453.131 94.8836 452.956 94.7204 452.998L90.9524 453.965C90.8493 453.991 90.7441 453.928 90.7173 453.824L89.5727 449.365C89.5459 449.261 89.4407 449.198 89.3378 449.225L88.6232 449.408Z" fill="black"/>
<path fill-rule="evenodd" clip-rule="evenodd" d="M81.7112 451.182C81.7109 451.182 81.7107 451.183 81.7107 451.183C81.7108 451.183 81.7107 451.184 81.7105 451.184C81.165 451.349 80.8368 451.91 80.9557 452.472C80.9558 452.472 80.9556 452.472 80.9553 452.473C80.9552 452.473 80.9551 452.473 80.955 452.473C80.9549 452.473 80.9549 452.473 80.955 452.473L81.8908 456.118C81.8908 456.118 81.8911 456.119 81.8913 456.119C81.8916 456.119 81.8919 456.119 81.892 456.119C81.8953 456.134 81.8989 456.15 81.9029 456.165C82.0513 456.743 82.6245 457.099 83.198 456.978C83.1982 456.978 83.1985 456.978 83.1986 456.978L83.1987 456.979L83.1989 456.979C83.199 456.979 83.1991 456.979 83.1992 456.979L87.115 455.973C87.1153 455.973 87.1155 455.973 87.1155 455.973L87.1154 455.972L87.1156 455.972L87.1158 455.972C87.6765 455.802 88.0078 455.214 87.8594 454.636C87.8554 454.621 87.8511 454.605 87.8465 454.59C87.8464 454.59 87.8466 454.59 87.8469 454.59C87.8471 454.59 87.8473 454.589 87.8472 454.589L86.9115 450.944C86.9114 450.944 86.9111 450.944 86.9108 450.944C86.9106 450.944 86.9103 450.944 86.9102 450.943C86.7436 450.393 86.186 450.06 85.6282 450.178C85.628 450.178 85.6278 450.178 85.6277 450.177C85.6276 450.177 85.6272 450.177 85.627 450.177L81.7112 451.182ZM82.7051 452.023L82.7049 452.024L82.7048 452.024C82.7049 452.024 82.7048 452.024 82.7046 452.024C82.3638 452.128 82.1591 452.48 82.234 452.833C82.2341 452.834 82.2339 452.834 82.2338 452.834C82.2336 452.834 82.2335 452.834 82.2336 452.834L82.8222 455.127C82.8222 455.127 82.8224 455.127 82.8226 455.127C82.8227 455.127 82.8228 455.127 82.8229 455.128C82.825 455.137 82.8273 455.147 82.8298 455.157C82.9231 455.52 83.2819 455.744 83.6403 455.669C83.6405 455.669 83.6407 455.669 83.6407 455.669L83.6409 455.669L83.641 455.669L83.6411 455.669L86.0971 455.039L86.0972 455.039L86.0973 455.039L86.0974 455.038C86.0974 455.038 86.0974 455.038 86.0975 455.038C86.4481 454.932 86.6546 454.562 86.5612 454.199C86.5587 454.189 86.556 454.179 86.5531 454.17L86.5532 454.17L86.5533 454.17C86.5535 454.169 86.5536 454.169 86.5536 454.169L85.965 451.876C85.9649 451.876 85.9648 451.876 85.9646 451.876C85.9644 451.876 85.9642 451.876 85.9641 451.876C85.8595 451.53 85.5105 451.32 85.1618 451.393C85.1617 451.393 85.1616 451.393 85.1615 451.393L85.1614 451.393L85.1612 451.393L85.1611 451.393L82.7051 452.023Z" fill="black"/>
<path fill-rule="evenodd" clip-rule="evenodd" d="M101.33 452.123C101.357 452.227 101.461 452.291 101.563 452.264L102.295 452.076C102.397 452.05 102.459 451.944 102.432 451.84L101.28 447.355C101.28 447.355 101.28 447.355 101.28 447.355L101.279 447.355L101.279 447.355C101.279 447.355 101.279 447.354 101.279 447.354C101.276 447.339 101.272 447.323 101.268 447.308C101.12 446.73 100.551 446.373 99.9828 446.493C99.9826 446.493 99.9823 446.493 99.9822 446.492C99.9821 446.492 99.9819 446.492 99.9815 446.492L96.2223 447.457C96.2219 447.457 96.2218 447.458 96.2218 447.458C96.2219 447.458 96.2217 447.458 96.2215 447.458C96.2063 447.462 96.191 447.465 96.1758 447.469C95.5926 447.619 95.2434 448.222 95.3958 448.815C95.3998 448.831 95.4041 448.846 95.4087 448.861C95.4087 448.862 95.4086 448.862 95.4083 448.862C95.408 448.862 95.4079 448.862 95.4079 448.863L96.5594 453.348C96.5862 453.452 96.6906 453.515 96.7928 453.489L97.5248 453.301C97.627 453.275 97.6881 453.169 97.6613 453.065L97.1822 451.199C97.1554 451.094 97.2166 450.989 97.3188 450.962L100.617 450.116C100.719 450.089 100.824 450.153 100.851 450.257L101.33 452.123ZM96.8693 449.98L96.6297 449.047C96.5369 448.685 96.7495 448.318 97.1046 448.227L99.4874 447.615C99.8425 447.524 100.205 447.743 100.298 448.105L100.538 449.038C100.565 449.142 100.503 449.248 100.401 449.274L97.1028 450.121C97.0006 450.147 96.896 450.084 96.8693 449.98Z" fill="black"/>
<path fill-rule="evenodd" clip-rule="evenodd" d="M116.828 448.346C116.725 448.372 116.619 448.309 116.592 448.205L116.113 446.339C116.087 446.234 115.981 446.171 115.878 446.198L112.543 447.054C112.44 447.08 112.378 447.186 112.405 447.291L112.884 449.157C112.911 449.261 112.849 449.367 112.746 449.394L112.007 449.583C111.903 449.61 111.798 449.547 111.771 449.443L110.62 444.957L110.62 444.957L110.62 444.957C110.62 444.957 110.62 444.957 110.62 444.957C110.621 444.957 110.621 444.956 110.621 444.956C110.616 444.941 110.612 444.926 110.608 444.91C110.455 444.316 110.809 443.712 111.398 443.561C111.413 443.557 111.429 443.554 111.444 443.55C111.444 443.55 111.445 443.55 111.444 443.55C111.444 443.55 111.445 443.549 111.445 443.549L115.245 442.574C115.245 442.574 115.246 442.574 115.246 442.574C115.246 442.574 115.246 442.574 115.246 442.574C115.82 442.453 116.393 442.809 116.541 443.387C116.545 443.402 116.549 443.418 116.552 443.433C116.552 443.433 116.553 443.434 116.553 443.434C116.553 443.434 116.553 443.434 116.553 443.434C116.553 443.434 116.553 443.434 116.553 443.434L117.705 447.919C117.732 448.024 117.67 448.129 117.567 448.156L116.828 448.346ZM111.852 445.139L112.092 446.072C112.119 446.176 112.224 446.239 112.327 446.212L115.662 445.356C115.765 445.33 115.827 445.224 115.8 445.12L115.561 444.187C115.468 443.825 115.102 443.607 114.744 443.699L112.333 444.318C111.975 444.41 111.76 444.777 111.852 445.139Z" fill="black"/>
<path d="M103.747 445.526C103.801 445.512 103.859 445.523 103.905 445.556L108.198 448.651C108.344 448.755 108.538 448.62 108.493 448.445L107.545 444.752C107.518 444.648 107.579 444.542 107.681 444.516L108.413 444.328C108.515 444.302 108.62 444.365 108.647 444.469L110.038 449.888C110.064 449.992 110.003 450.098 109.901 450.124L108.991 450.358C108.987 450.359 108.983 450.357 108.982 450.353C108.982 450.351 108.981 450.349 108.979 450.349L104.638 447.295C104.492 447.193 104.301 447.329 104.346 447.503L105.272 451.112C105.299 451.216 105.238 451.321 105.136 451.348L104.399 451.537C104.297 451.563 104.192 451.5 104.165 451.396L102.774 445.977C102.748 445.872 102.809 445.767 102.911 445.741L103.747 445.526Z" fill="black"/>
</g>
<g clip-path="url(#clip3_23_183)">
<path d="M1205.06 504.81C1169.53 497.466 1143.42 494.391 1150.66 472.351C1150.66 472.351 1154.35 464.116 1164.94 467.191C1164.94 467.191 1167.91 459.771 1176.16 461.675C1180.59 462.694 1183.92 468.785 1182.84 473.604C1182.84 473.604 1194.03 475.305 1190.93 485.726C1189.84 489.357 1186.93 495.159 1176.88 491.377C1176.88 491.377 1171.28 488.543 1173.64 479.185C1165.89 496.194 1191.64 503.983 1197.55 488.14C1200.1 481.292 1198.15 472.656 1187.73 470.537C1187.04 454.91 1172.25 450.663 1162.42 461.525C1154.7 458.844 1146.72 462.748 1144.11 470.552C1135.73 495.675 1173.14 500.202 1205.06 504.81Z" fill="#24339B"/>
</g>
</g>
<defs>
<filter id="filter0_f_23_183" x="0" y="0" width="1428" height="516.722" filterUnits="userSpaceOnUse" color-interpolation-filters="sRGB">
<feFlood flood-opacity="0" result="BackgroundImageFix"/>
<feBlend mode="normal" in="SourceGraphic" in2="BackgroundImageFix" result="shape"/>
<feGaussianBlur stdDeviation="3" result="effect1_foregroundBlur_23_183"/>
</filter>
<linearGradient id="paint0_linear_23_183" x1="88.6791" y1="392.8" x2="76.5665" y2="444.564" gradientUnits="userSpaceOnUse">
<stop stop-color="#00FFA3"/>
<stop offset="1" stop-color="#DC1FFF"/>
</linearGradient>
<linearGradient id="paint1_linear_23_183" x1="88.6791" y1="392.799" x2="76.5665" y2="444.563" gradientUnits="userSpaceOnUse">
<stop stop-color="#00FFA3"/>
<stop offset="1" stop-color="#DC1FFF"/>
</linearGradient>
<linearGradient id="paint2_linear_23_183" x1="88.6791" y1="392.8" x2="76.5665" y2="444.564" gradientUnits="userSpaceOnUse">
<stop stop-color="#00FFA3"/>
<stop offset="1" stop-color="#DC1FFF"/>
</linearGradient>
<clipPath id="clip0_23_183">
<rect width="114" height="114" fill="white" transform="translate(1308 39)"/>
</clipPath>
<clipPath id="clip1_23_183">
<rect width="58.7163" height="58.7163" fill="white" transform="translate(6 53.7051) rotate(-24.882)"/>
</clipPath>
<clipPath id="clip2_23_183">
<rect width="72.0192" height="72.0192" fill="white" transform="translate(46 402.908) rotate(-14.3982)"/>
</clipPath>
<clipPath id="clip3_23_183">
<rect width="68.8082" height="43.5785" fill="white" transform="translate(1152.28 447) rotate(19.1305)"/>
</clipPath>
</defs>
</svg>
